<svg xmlns="http://www.w3.org/2000/svg" xmlns:xlink="http://www.w3.org/1999/xlink" width="68" height="68" viewBox="0 0 68 68"><defs><style>.a{fill:#fa8231;}.b{fill:#fafafa;}.c{filter:url(#a);}</style><filter id="a" x="0" y="0" width="68" height="68" filterUnits="userSpaceOnUse"><feOffset dy="3" input="SourceAlpha"/><feGaussianBlur stdDeviation="3" result="b"/><feFlood flood-opacity="0.161"/><feComposite operator="in" in2="b"/><feComposite in="SourceGraphic"/></filter></defs><g transform="translate(9 6)"><g class="c" transform="matrix(1, 0, 0, 1, -9, -6)"><path class="a" d="M25,0A25,25,0,1,0,50,25,25.028,25.028,0,0,0,25,0Zm0,0" transform="translate(9 6)"/></g><path class="b" d="M145.449,137.03H137.03v8.419a1.981,1.981,0,0,1-3.962,0V137.03h-8.419a1.981,1.981,0,0,1,0-3.962h8.419v-8.419a1.981,1.981,0,0,1,3.962,0v8.419h8.419a1.981,1.981,0,0,1,0,3.962Zm0,0" transform="translate(-110.049 -110.049)"/></g></svg>